<svg id="Layer_1" data-name="Layer 1" xmlns="http://www.w3.org/2000/svg" viewBox="0 0 512 512" fill="currentColor">
  <path d="M320.35,314.15c0-49.4-.09-98.8.13-148.2,0-5.19-1.25-6.55-6.41-6.39-13.27.39-26.55.07-39.83.12-7.17,0-13-2.19-16.4-9s-1.38-12.79,3.22-18.32q39.12-47,78.22-94c7.49-9,18.09-9.22,25.63-.23,26.45,31.54,52.64,63.29,79,94.9,4.82,5.78,5.53,11.85,2.14,18.41-3.13,6.06-8.6,8.22-15,8.25-13.66.07-27.34.24-41-.11-5-.13-6,1.45-6,6.21q.21,146.45.11,292.9a58.8,58.8,0,0,1-.24,8.19c-1.11,7.74-7.17,13.06-16.07,13.38-10.33.38-20.7.39-31,0-10.67-.39-16.35-6.59-16.36-17.31q-.07-74.38,0-148.79Z"/>
  <path d="M191.75,198c0,49.39.08,98.79-.12,148.19,0,5.08,1.11,6.64,6.38,6.48,13.46-.42,26.94,0,40.41-.2,7.35-.1,13,2.4,16.15,9.23s1.07,12.61-3.33,17.88q-39.37,47.19-78.87,94.29c-7,8.38-17.89,8.71-24.84.43q-40.11-47.73-79.84-95.77c-4.41-5.31-5-11.26-2-17.49,2.86-5.92,7.78-8.47,14.18-8.48,14.06,0,28.12-.26,42.17.08,4.91.12,6.07-1.27,6.06-6.11q-.23-146.14-.11-292.28c0-2.34-.06-4.69.07-7,.5-8.89,6.9-15.28,15.87-15.45,10.15-.19,20.31-.11,30.46,0,11.15.09,17.31,6.25,17.32,17.47q.06,74.4,0,148.78Z"/>
</svg>
