<svg id="Layer_1" data-name="Layer 1" xmlns="http://www.w3.org/2000/svg" viewBox="0 0 512 512" fill="currentColor">
  <path d="M304,416H240a16,16,0,0,0-16,16v32a16,16,0,0,0,16,16h64a16,16,0,0,0,16-16V432A16,16,0,0,0,304,416ZM176,352H128V48a16,16,0,0,0-16-16H80A16,16,0,0,0,64,48V352H16C1.81,352-5.37,369.24,4.71,379.31l80,96a16,16,0,0,0,22.62,0l80-96C197.35,369.26,190.22,352,176,352ZM432,160H240a16,16,0,0,0-16,16v32a16,16,0,0,0,16,16H432a16,16,0,0,0,16-16V176A16,16,0,0,0,432,160ZM368,288H240a16,16,0,0,0-16,16v32a16,16,0,0,0,16,16H368a16,16,0,0,0,16-16V304A16,16,0,0,0,368,288ZM496,32H240a16,16,0,0,0-16,16V80a16,16,0,0,0,16,16H496a16,16,0,0,0,16-16V48A16,16,0,0,0,496,32Z"/>
</svg>
