<svg id="Layer_1" data-name="Layer 1" xmlns="http://www.w3.org/2000/svg" viewBox="0 0 512 512" fill="currentColor">
  <path d="M304,416H240a16,16,0,0,0-16,16v32a16,16,0,0,0,16,16h64a16,16,0,0,0,16-16V432A16,16,0,0,0,304,416ZM16,160H64V464a16,16,0,0,0,16,16h32a16,16,0,0,0,16-16V160h48c14.21,0,21.38-17.24,11.31-27.31l-80-96a16,16,0,0,0-22.62,0l-80,96C-5.35,142.74,1.77,160,16,160Zm416,0H240a16,16,0,0,0-16,16v32a16,16,0,0,0,16,16H432a16,16,0,0,0,16-16V176A16,16,0,0,0,432,160ZM368,288H240a16,16,0,0,0-16,16v32a16,16,0,0,0,16,16H368a16,16,0,0,0,16-16V304A16,16,0,0,0,368,288ZM496,32H240a16,16,0,0,0-16,16V80a16,16,0,0,0,16,16H496a16,16,0,0,0,16-16V48A16,16,0,0,0,496,32Z"/>
</svg>
